<?xml version="1.0"?>
<svg xmlns="http://www.w3.org/2000/svg" xmlns:xlink="http://www.w3.org/1999/xlink" version="1.1" id="Capa_1" x="0px" y="0px" viewBox="0 0 512 512" style="enable-background:new 0 0 512 512;" xml:space="preserve" width="512px" height="512px" class=""><g transform="matrix(5.05731e-17 0.825921 0.825921 -5.05731e-17 44.5642 44.5642)"><path style="fill:#D4006F" d="M448,0H64C28.672,0,0,28.672,0,64v384c0,35.328,28.672,64,64,64h384c35.36,0,64-28.672,64-64V64  C512,28.64,483.328,0,448,0z" data-original="#0277BD" class="" data-old_color="#0277BD"/><g>
	<path style="fill:#F5F5F5" d="M224,384c0,17.664-14.336,32-32,32H96c-17.696,0-32-14.336-32-32V96c0-17.696,14.304-32,32-32h96   c17.664,0,32,14.304,32,32V384z" data-original="#ECEFF1" class="active-path" data-old_color="#ECEFF1"/>
	<path style="fill:#F5F5F5" d="M448,256c0,17.664-14.336,32-32,32h-96c-17.696,0-32-14.336-32-32V96c0-17.696,14.304-32,32-32h96   c17.664,0,32,14.304,32,32V256z" data-original="#ECEFF1" class="active-path" data-old_color="#ECEFF1"/>
</g></g> </svg>
